<?xml version="1.0" encoding="UTF-8" standalone="no"?>
<svg width="370px" height="422px" viewBox="0 0 370 422" version="1.1" xmlns="http://www.w3.org/2000/svg" xmlns:xlink="http://www.w3.org/1999/xlink" xmlns:sketch="http://www.bohemiancoding.com/sketch/ns">
    <!-- Generator: Sketch 3.2.2 (9983) - http://www.bohemiancoding.com/sketch -->
    <title>jet-blog-pattern-jet</title>
    <desc>Created with Sketch.</desc>
    <defs></defs>
    <g id="Page-1" stroke="none" stroke-width="1" fill="none" fill-rule="evenodd" sketch:type="MSPage">
        <g id="Database" sketch:type="MSLayerGroup" transform="translate(246.000000, 241.000000)">
            <ellipse id="Oval-1" stroke="#979797" fill="#EAEAEA" sketch:type="MSShapeGroup" cx="61.5" cy="28" rx="60.5" ry="28"></ellipse>
            <path d="M122,153 C122,137.536027 94.9132274,125 61.5,125 C28.0867726,125 1,137.536027 1,153" id="Oval-2" stroke="#979797" sketch:type="MSShapeGroup" transform="translate(61.500000, 139.000000) rotate(180.000000) translate(-61.500000, -139.000000) "></path>
            <path d="M1,28.171875 L1,126.171875" id="Path-1" stroke="#979797" sketch:type="MSShapeGroup"></path>
            <path d="M122,28.171875 L122,126.171875" id="Path-2" stroke="#979797" sketch:type="MSShapeGroup"></path>
            <text id="DB" sketch:type="MSTextLayer" font-family="Helvetica" font-size="14" font-weight="normal" fill="#7A7A7A">
                <tspan x="51" y="168">DB</tspan>
            </text>
        </g>
        <g id="Browser" sketch:type="MSLayerGroup" transform="translate(108.000000, 24.000000)">
            <rect id="Rectangle-2" stroke="#979797" sketch:type="MSShapeGroup" x="0" y="19" width="148" height="9"></rect>
            <rect id="Rectangle-3" stroke="#979797" sketch:type="MSShapeGroup" x="0" y="19" width="148" height="99"></rect>
            <text sketch:type="MSTextLayer" font-family="Helvetica" font-size="14" font-weight="normal" fill="#7A7A7A">
                <tspan x="48" y="14">Browser</tspan>
            </text>
            <text id="----DATA-+" sketch:type="MSTextLayer" font-family="Helvetica" font-size="14" font-weight="normal" fill="#68ACCA">
                <tspan x="154" y="157">    DATA +</tspan>
                <tspan x="154" y="174">Notifications</tspan>
            </text>
        </g>
        <g id="Webserver-+-Webserver" sketch:type="MSLayerGroup" transform="translate(18.000000, 247.000000)">
            <rect id="Webserver" stroke="#979797" fill="#EAEAEA" sketch:type="MSShapeGroup" x="0" y="0" width="111" height="141" rx="8"></rect>
            <text id="Webserver" sketch:type="MSTextLayer" font-family="Helvetica" font-size="14" font-weight="normal" fill="#7A7A7A">
                <tspan x="22" y="162">Webserver</tspan>
            </text>
        </g>
        <g id="ws-browser" sketch:type="MSLayerGroup" transform="translate(249.610384, 191.451776) rotate(49.000000) translate(-249.610384, -191.451776) translate(182.110384, 189.451776)" stroke="#68ACCA" stroke-linecap="square" fill="#68ACCA">
            <path d="M133.508645,2.21983306 L0.991953875,2.21983307" id="Line-5" sketch:type="MSShapeGroup"></path>
            <path id="Line-5-decoration-1" d="M1.50864492,2.21983307 C5.28864492,3.26983307 8.52864492,4.16983307 12.3086449,5.21983307 C12.3086449,3.11983307 12.3086449,1.31983307 12.3086449,-0.780166932 C8.52864492,0.269833069 5.28864492,1.16983307 1.50864492,2.21983307 C1.50864492,2.21983307 1.50864492,2.21983307 1.50864492,2.21983307 Z"></path>
            <path d="M1.30606923,2.75280635 L133.82276,2.75280634" id="Line-6" sketch:type="MSShapeGroup"></path>
            <path id="Line-6-decoration-1" d="M133.306069,2.75280634 C129.526069,1.70280634 126.286069,0.802806341 122.506069,-0.247193658 C122.506069,1.85280634 122.506069,3.65280634 122.506069,5.75280634 C126.286069,4.70280634 129.526069,3.80280634 133.306069,2.75280634 C133.306069,2.75280634 133.306069,2.75280634 133.306069,2.75280634 Z"></path>
        </g>
        <g id="ws-browser-2" sketch:type="MSLayerGroup" transform="translate(117.022601, 194.364431) rotate(129.000000) translate(-117.022601, -194.364431) translate(48.022601, 191.364431)" stroke="#979797" stroke-linecap="square" fill="#D8D8D8">
            <path d="M69.5670193,3.23351336 L0.584596801,3.23351336" id="Line-4" sketch:type="MSShapeGroup"></path>
            <path id="Line-4-decoration-1" d="M1.56701932,3.23351336 C5.34701932,4.28351336 8.58701932,5.18351336 12.3670193,6.23351336 C12.3670193,4.13351336 12.3670193,2.33351336 12.3670193,0.233513364 C8.58701932,1.28351336 5.34701932,2.18351336 1.56701932,3.23351336 C1.56701932,3.23351336 1.56701932,3.23351336 1.56701932,3.23351336 Z"></path>
            <path d="M68.3978257,3.23351336 L137.380248,3.23351336" id="Line-3" sketch:type="MSShapeGroup"></path>
            <path id="Line-3-decoration-1" d="M136.397826,3.23351336 C132.617826,2.18351336 129.377826,1.28351336 125.597826,0.233513364 C125.597826,2.33351336 125.597826,4.13351336 125.597826,6.23351336 C129.377826,5.18351336 132.617826,4.28351336 136.397826,3.23351336 C136.397826,3.23351336 136.397826,3.23351336 136.397826,3.23351336 Z"></path>
        </g>
        <text id="HTML-/-JS-/-CSS" sketch:type="MSTextLayer" font-family="Helvetica" font-size="14" font-weight="normal" fill="#7A7A7A">
            <tspan x="10" y="185">HTML / JS / CSS</tspan>
            <tspan x="10" y="202">       </tspan>
        </text>
    </g>
</svg>