<?xml version="1.0" encoding="UTF-8" standalone="no"?>
<svg width="379px" height="422px" viewBox="0 0 379 422" version="1.1" xmlns="http://www.w3.org/2000/svg" xmlns:xlink="http://www.w3.org/1999/xlink" xmlns:sketch="http://www.bohemiancoding.com/sketch/ns">
    <!-- Generator: Sketch 3.2.2 (9983) - http://www.bohemiancoding.com/sketch -->
    <title>jet-blog-pattern-redis</title>
    <desc>Created with Sketch.</desc>
    <defs></defs>
    <g id="Page-1" stroke="none" stroke-width="1" fill="none" fill-rule="evenodd" sketch:type="MSPage">
        <g id="Database" sketch:type="MSLayerGroup" transform="translate(255.000000, 241.000000)">
            <ellipse id="Oval-1" stroke="#979797" fill="#EAEAEA" sketch:type="MSShapeGroup" cx="61.5" cy="28" rx="60.5" ry="28"></ellipse>
            <path d="M122,153 C122,137.536027 94.9132274,125 61.5,125 C28.0867726,125 1,137.536027 1,153" id="Oval-2" stroke="#979797" sketch:type="MSShapeGroup" transform="translate(61.500000, 139.000000) rotate(180.000000) translate(-61.500000, -139.000000) "></path>
            <path d="M1,28.171875 L1,126.171875" id="Path-1" stroke="#979797" sketch:type="MSShapeGroup"></path>
            <path d="M122,28.171875 L122,126.171875" id="Path-2" stroke="#979797" sketch:type="MSShapeGroup"></path>
            <text id="DB" sketch:type="MSTextLayer" font-family="Helvetica" font-size="14" font-weight="normal" fill="#7A7A7A">
                <tspan x="51" y="168">DB</tspan>
            </text>
        </g>
        <g id="Browser" sketch:type="MSLayerGroup" transform="translate(117.000000, 24.000000)">
            <rect id="Rectangle-2" stroke="#979797" sketch:type="MSShapeGroup" x="0" y="19" width="148" height="9"></rect>
            <rect id="Rectangle-3" stroke="#979797" sketch:type="MSShapeGroup" x="0" y="19" width="148" height="99"></rect>
            <text sketch:type="MSTextLayer" font-family="Helvetica" font-size="14" font-weight="normal" fill="#7A7A7A">
                <tspan x="48" y="14">Browser</tspan>
            </text>
            <text id="Notifications" sketch:type="MSTextLayer" font-family="Helvetica" font-size="14" font-weight="normal" fill="#68ACCA">
                <tspan x="151" y="170">Notifications</tspan>
            </text>
        </g>
        <g id="Webserver-+-Webserver" sketch:type="MSLayerGroup" transform="translate(27.000000, 247.000000)">
            <rect id="Webserver" stroke="#979797" fill="#EAEAEA" sketch:type="MSShapeGroup" x="0" y="0" width="111" height="141" rx="8"></rect>
            <text id="Webserver" sketch:type="MSTextLayer" font-family="Helvetica" font-size="14" font-weight="normal" fill="#7A7A7A">
                <tspan x="22" y="162">Webserver</tspan>
            </text>
        </g>
        <g id="ws-browser" sketch:type="MSLayerGroup" transform="translate(245.060107, 192.630749) rotate(49.000000) translate(-245.060107, -192.630749) translate(169.560107, 179.630749)" stroke-linecap="square">
            <path d="M73.472282,22.8919303 L1.17766643,22.8919303" id="Line-4" stroke="#979797" fill="#D8D8D8" sketch:type="MSShapeGroup"></path>
            <path id="Line-4-decoration-1" d="M1.472282,22.8919303 C5.252282,23.9419303 8.492282,24.8419303 12.272282,25.8919303 C12.272282,23.7919303 12.272282,21.9919303 12.272282,19.8919303 C8.492282,20.9419303 5.252282,21.8419303 1.472282,22.8919303 C1.472282,22.8919303 1.472282,22.8919303 1.472282,22.8919303 Z" stroke="#979797" fill="#D8D8D8"></path>
            <path d="M149.508645,2.21983306 L16.9919539,2.21983307" id="Line-5" stroke="#68ACCA" fill="#68ACCA" sketch:type="MSShapeGroup"></path>
            <path id="Line-5-decoration-1" d="M17.5086449,2.21983307 C21.2886449,3.26983307 24.5286449,4.16983307 28.3086449,5.21983307 C28.3086449,3.11983307 28.3086449,1.31983307 28.3086449,-0.780166932 C24.5286449,0.269833069 21.2886449,1.16983307 17.5086449,2.21983307 C17.5086449,2.21983307 17.5086449,2.21983307 17.5086449,2.21983307 Z" stroke="#68ACCA" fill="#68ACCA"></path>
            <path d="M68.8511176,23 L137.671121,23" id="Line-3" stroke="#979797" fill="#D8D8D8" sketch:type="MSShapeGroup"></path>
            <path id="Line-3-decoration-1" d="M136.851118,23 C133.071118,21.95 129.831118,21.05 126.051118,20 C126.051118,22.1 126.051118,23.9 126.051118,26 C129.831118,24.95 133.071118,24.05 136.851118,23 C136.851118,23 136.851118,23 136.851118,23 Z" stroke="#979797" fill="#D8D8D8"></path>
        </g>
        <g id="ws-browser-2" sketch:type="MSLayerGroup" transform="translate(126.022601, 194.364431) rotate(129.000000) translate(-126.022601, -194.364431) translate(57.022601, 191.364431)" stroke="#979797" stroke-linecap="square" fill="#D8D8D8">
            <path d="M69.5670193,3.23351336 L0.584596801,3.23351336" id="Line-4" sketch:type="MSShapeGroup"></path>
            <path id="Line-4-decoration-1" d="M1.56701932,3.23351336 C5.34701932,4.28351336 8.58701932,5.18351336 12.3670193,6.23351336 C12.3670193,4.13351336 12.3670193,2.33351336 12.3670193,0.233513364 C8.58701932,1.28351336 5.34701932,2.18351336 1.56701932,3.23351336 C1.56701932,3.23351336 1.56701932,3.23351336 1.56701932,3.23351336 Z"></path>
            <path d="M68.3978257,3.23351336 L137.380248,3.23351336" id="Line-3" sketch:type="MSShapeGroup"></path>
            <path id="Line-3-decoration-1" d="M136.397826,3.23351336 C132.617826,2.18351336 129.377826,1.28351336 125.597826,0.233513364 C125.597826,2.33351336 125.597826,4.13351336 125.597826,6.23351336 C129.377826,5.18351336 132.617826,4.28351336 136.397826,3.23351336 C136.397826,3.23351336 136.397826,3.23351336 136.397826,3.23351336 Z"></path>
        </g>
        <text id="DATA" sketch:type="MSTextLayer" font-family="Helvetica" font-size="14" font-weight="normal" fill="#7A7A7A">
            <tspan x="183" y="195">DATA</tspan>
        </text>
        <text id="HTML-/-JS-/-CSS-2" sketch:type="MSTextLayer" font-family="Helvetica" font-size="14" font-weight="normal" fill="#7A7A7A">
            <tspan x="10" y="195">HTML / JS / CSS</tspan>
        </text>
    </g>
</svg>